<svg width="36" height="36" viewBox="0 0 36 36" fill="none" xmlns="http://www.w3.org/2000/svg">
<path d="M2.12121e-09 17.9968C-9.96549e-05 4.05266 3.51127 -4.74478e-05 17.9968 4.16521e-10C32.4824 4.64824e-05 35.9936 4.05276 35.9936 17.9968C35.9937 31.9409 31.8949 35.9936 17.9968 35.9936C4.86505 35.9937 9.96591e-05 31.941 2.12121e-09 17.9968Z" fill="#E7FC4B"/>
<path d="M15.0819 7.93492C15.0819 8.24955 15.003 8.5399 14.8273 8.78584L14.8273 8.78593C14.826 8.78785 14.8246 8.78969 14.8232 8.79161C14.8225 8.79266 14.8218 8.7938 14.821 8.79485L14.821 8.79476C14.7213 8.93682 14.5671 9.063 14.3965 9.17676C14.2156 9.2973 13.9865 9.42352 13.7139 9.55569C13.2267 9.79192 12.7074 10.1642 12.1568 10.6838C10.4783 12.287 9.61179 14.6561 9.61179 17.8534C9.6118 19.9405 10.008 21.6986 10.7834 23.1419C11.5604 24.5881 12.6214 25.6339 13.9668 26.2955L14.0293 26.3267C14.6683 26.6544 15.0819 27.1323 15.0819 27.7837C15.0819 28.1306 14.949 28.4326 14.6948 28.6677C14.4312 28.9198 14.0916 29.0316 13.7139 29.0316C12.7149 29.0316 11.6846 28.4792 10.6316 27.492C8.00129 25.0673 6.69531 21.8457 6.69531 17.8653C6.69531 13.876 8.00187 10.6497 10.6339 8.22457C11.6861 7.23867 12.7156 6.68705 13.7139 6.68705C14.0872 6.68705 14.4246 6.79209 14.6887 7.03328C14.9497 7.27154 15.0819 7.58095 15.0819 7.93492ZM21.6413 7.56998C21.6413 8.022 21.3662 8.37658 20.9732 8.64355L20.9733 8.64364C20.3692 9.07187 20.1746 9.43139 20.1746 9.70996C20.1746 9.83755 20.2731 10.086 20.633 10.4773C21.0547 10.9189 21.2927 11.4185 21.2927 11.9701C21.2927 12.4887 21.1295 12.9373 20.775 13.2732C20.4296 13.608 19.9761 13.759 19.4557 13.759C18.8904 13.759 18.4133 13.5002 18.0361 13.0382L18.0347 13.0365L18.0333 13.0348C17.6691 12.5771 17.4865 12.0452 17.4865 11.4532C17.4865 9.99192 17.8785 8.75654 18.6862 7.77514C19.0507 7.32811 19.4139 6.99616 19.779 6.83388C20.0731 6.69903 20.3521 6.59864 20.5737 6.59863C20.8536 6.59863 21.1304 6.658 21.34 6.83913C21.5595 7.02889 21.6413 7.29567 21.6413 7.56998ZM27.6216 7.56998C27.6216 8.02245 27.346 8.37736 26.9524 8.64443C26.3492 9.0723 26.1549 9.43156 26.1549 9.70996C26.1549 9.83755 26.2534 10.086 26.6133 10.4773C27.035 10.9189 27.2729 11.4185 27.2729 11.9701C27.2729 12.4887 27.1098 12.9373 26.7553 13.2732C26.4099 13.608 25.9563 13.759 25.436 13.759C24.8707 13.759 24.3936 13.5002 24.0164 13.0382L24.015 13.0365L24.0136 13.0348C23.6494 12.5771 23.4668 12.0452 23.4668 11.4532C23.4668 9.99192 23.8588 8.75654 24.6665 7.77514C25.031 7.32811 25.3943 6.99616 25.7594 6.83388C26.0534 6.69903 26.3324 6.59864 26.554 6.59863C26.8339 6.59863 27.1108 6.658 27.3203 6.83913C27.5398 7.02889 27.6216 7.29568 27.6216 7.56998Z" fill="#241F4F"/>
</svg>
